<svg id="vector" xmlns="http://www.w3.org/2000/svg" stroke="black" fill="transparent" style="font-size: 10px;" stroke-width="2" viewBox="0 0 498 150" width="498"><rect x="5" y="5" width="150" height="60"><title>Name: GUI-Prototyp
ID: 1
Duration: 2
FAZ: 0
FEZ: 2
SAZ: 0
SEZ: 2
GP: 0
FP: 0</title></rect><line x1="55" y1="5" x2="55" y2="65"></line><line x1="105" y1="5" x2="105" y2="65"></line><line x1="5" y1="25" x2="155" y2="25"></line><line x1="5" y1="45" x2="155" y2="45"></line><text x="30" y="15" stroke-width="1">1</text><text x="130" y="15" stroke-width="1">2</text><text x="30" y="35" stroke-width="1">0</text><text x="80" y="35" stroke-width="1">0</text><text x="130" y="35" stroke-width="1">2</text><text x="30" y="55" stroke-width="1">0</text><text x="80" y="55" stroke-width="1">0</text><text x="130" y="55" stroke-width="1">2</text><rect x="5" y="85" width="150" height="60"><title>Name: Datenbank Anbindung
ID: 2
Duration: 1
FAZ: 0
FEZ: 1
SAZ: 1
SEZ: 2
GP: 1
FP: 0</title></rect><line x1="55" y1="85" x2="55" y2="145"></line><line x1="105" y1="85" x2="105" y2="145"></line><line x1="5" y1="105" x2="155" y2="105"></line><line x1="5" y1="125" x2="155" y2="125"></line><text x="30" y="95" stroke-width="1">2</text><text x="130" y="95" stroke-width="1">1</text><text x="30" y="115" stroke-width="1">0</text><text x="80" y="115" stroke-width="1">1</text><text x="130" y="115" stroke-width="1">1</text><text x="30" y="135" stroke-width="1">1</text><text x="80" y="135" stroke-width="1">0</text><text x="130" y="135" stroke-width="1">2</text><rect x="177" y="5" width="150" height="60"><title>Name: Benutzerverwaltung
ID: 3
Duration: 1
FAZ: 1
FEZ: 2
SAZ: 5
SEZ: 6
GP: 4
FP: 4</title></rect><line x1="227" y1="5" x2="227" y2="65"></line><line x1="277" y1="5" x2="277" y2="65"></line><line x1="177" y1="25" x2="327" y2="25"></line><line x1="177" y1="45" x2="327" y2="45"></line><text x="202" y="15" stroke-width="1">3</text><text x="302" y="15" stroke-width="1">1</text><text x="202" y="35" stroke-width="1">1</text><text x="252" y="35" stroke-width="1">4</text><text x="302" y="35" stroke-width="1">2</text><text x="202" y="55" stroke-width="1">5</text><text x="252" y="55" stroke-width="1">4</text><text x="302" y="55" stroke-width="1">6</text><rect x="177" y="85" width="150" height="60"><title>Name: Implementierung 2D-Ansicht
ID: 4
Duration: 2
FAZ: 2
FEZ: 4
SAZ: 2
SEZ: 4
GP: 0
FP: 0</title></rect><line x1="227" y1="85" x2="227" y2="145"></line><line x1="277" y1="85" x2="277" y2="145"></line><line x1="177" y1="105" x2="327" y2="105"></line><line x1="177" y1="125" x2="327" y2="125"></line><text x="202" y="95" stroke-width="1">4</text><text x="302" y="95" stroke-width="1">2</text><text x="202" y="115" stroke-width="1">2</text><text x="252" y="115" stroke-width="1">0</text><text x="302" y="115" stroke-width="1">4</text><text x="202" y="135" stroke-width="1">2</text><text x="252" y="135" stroke-width="1">0</text><text x="302" y="135" stroke-width="1">4</text><rect x="343" y="5" width="150" height="60"><title>Name: Frontent Verwaltung IT-Komponenten
ID: 8
Duration: 2
FAZ: 4
FEZ: 6
SAZ: 4
SEZ: 6
GP: 0
FP: 0</title></rect><line x1="393" y1="5" x2="393" y2="65"></line><line x1="443" y1="5" x2="443" y2="65"></line><line x1="343" y1="25" x2="493" y2="25"></line><line x1="343" y1="45" x2="493" y2="45"></line><text x="368" y="15" stroke-width="1">8</text><text x="468" y="15" stroke-width="1">2</text><text x="368" y="35" stroke-width="1">4</text><text x="418" y="35" stroke-width="1">0</text><text x="468" y="35" stroke-width="1">6</text><text x="368" y="55" stroke-width="1">4</text><text x="418" y="55" stroke-width="1">0</text><text x="468" y="55" stroke-width="1">6</text><polyline points="155,10 166,10 166,115" stroke="red"></polyline><polyline points="155,96 166,96 166,115" stroke="black"></polyline><polyline points="166,115 177,115 172,110" stroke="red"></polyline><line x1="177" y1="115" x2="172" y2="120" stroke="red"></line><polyline points="155,90 160,90 160,35" stroke="black"></polyline><polyline points="160,35 177,35 172,30" stroke="black"></polyline><line x1="177" y1="35" x2="172" y2="40" stroke="black"></line><polyline points="327,90 332,90 332,35" stroke="red"></polyline><polyline points="332,35 343,35 338,30" stroke="red"></polyline><line x1="343" y1="35" x2="338" y2="40" stroke="red"></line><desc id="netzplan-content">%5B%7B%22id%22%3A%221%22%2C%22name%22%3A%22GUI-Prototyp%22%2C%22duration%22%3A2%2C%22dependencies%22%3A%22%22%7D%2C%7B%22id%22%3A%222%22%2C%22name%22%3A%22Datenbank%20Anbindung%22%2C%22duration%22%3A1%2C%22dependencies%22%3A%22%22%7D%2C%7B%22id%22%3A%223%22%2C%22name%22%3A%22Benutzerverwaltung%22%2C%22duration%22%3A1%2C%22dependencies%22%3A%222%22%7D%2C%7B%22id%22%3A%224%22%2C%22name%22%3A%22Implementierung%202D-Ansicht%22%2C%22duration%22%3A2%2C%22dependencies%22%3A%221%2C2%22%7D%2C%7B%22id%22%3A%228%22%2C%22name%22%3A%22Frontent%20Verwaltung%20IT-Komponenten%22%2C%22duration%22%3A2%2C%22dependencies%22%3A%224%22%7D%5D</desc></svg>