<svg id="vector" xmlns="http://www.w3.org/2000/svg" stroke="black" fill="transparent" style="font-size: 10px;" stroke-width="2" viewBox="0 0 1050 310" width="1050"><rect x="5" y="5" width="150" height="60"><title>Name: Geschäftsprozess analysieren
ID: 1
Duration: 1
FAZ: 0
FEZ: 1
SAZ: 0
SEZ: 1
GP: 0
FP: 0</title></rect><line x1="55" y1="5" x2="55" y2="65"></line><line x1="105" y1="5" x2="105" y2="65"></line><line x1="5" y1="25" x2="155" y2="25"></line><line x1="5" y1="45" x2="155" y2="45"></line><text x="30" y="15" stroke-width="1">1</text><text x="130" y="15" stroke-width="1">1</text><text x="30" y="35" stroke-width="1">0</text><text x="80" y="35" stroke-width="1">0</text><text x="130" y="35" stroke-width="1">1</text><text x="30" y="55" stroke-width="1">0</text><text x="80" y="55" stroke-width="1">0</text><text x="130" y="55" stroke-width="1">1</text><rect x="189" y="5" width="150" height="60"><title>Name: Zielplattformen auswählen
ID: 2
Duration: 1
FAZ: 1
FEZ: 2
SAZ: 10
SEZ: 11
GP: 9
FP: 7</title></rect><line x1="239" y1="5" x2="239" y2="65"></line><line x1="289" y1="5" x2="289" y2="65"></line><line x1="189" y1="25" x2="339" y2="25"></line><line x1="189" y1="45" x2="339" y2="45"></line><text x="214" y="15" stroke-width="1">2</text><text x="314" y="15" stroke-width="1">1</text><text x="214" y="35" stroke-width="1">1</text><text x="264" y="35" stroke-width="1">9</text><text x="314" y="35" stroke-width="1">2</text><text x="214" y="55" stroke-width="1">10</text><text x="264" y="55" stroke-width="1">7</text><text x="314" y="55" stroke-width="1">11</text><rect x="189" y="85" width="150" height="60"><title>Name: Anwendungsfalldiagramm erstellen
ID: 3
Duration: 3
FAZ: 1
FEZ: 4
SAZ: 5
SEZ: 8
GP: 4
FP: 0</title></rect><line x1="239" y1="85" x2="239" y2="145"></line><line x1="289" y1="85" x2="289" y2="145"></line><line x1="189" y1="105" x2="339" y2="105"></line><line x1="189" y1="125" x2="339" y2="125"></line><text x="214" y="95" stroke-width="1">3</text><text x="314" y="95" stroke-width="1">3</text><text x="214" y="115" stroke-width="1">1</text><text x="264" y="115" stroke-width="1">4</text><text x="314" y="115" stroke-width="1">4</text><text x="214" y="135" stroke-width="1">5</text><text x="264" y="135" stroke-width="1">0</text><text x="314" y="135" stroke-width="1">8</text><rect x="5" y="85" width="150" height="60"><title>Name: Git-Repository erstellen
ID: 4
Duration: 1
FAZ: 0
FEZ: 1
SAZ: 9
SEZ: 10
GP: 9
FP: 0</title></rect><line x1="55" y1="85" x2="55" y2="145"></line><line x1="105" y1="85" x2="105" y2="145"></line><line x1="5" y1="105" x2="155" y2="105"></line><line x1="5" y1="125" x2="155" y2="125"></line><text x="30" y="95" stroke-width="1">4</text><text x="130" y="95" stroke-width="1">1</text><text x="30" y="115" stroke-width="1">0</text><text x="80" y="115" stroke-width="1">9</text><text x="130" y="115" stroke-width="1">1</text><text x="30" y="135" stroke-width="1">9</text><text x="80" y="135" stroke-width="1">0</text><text x="130" y="135" stroke-width="1">10</text><rect x="373" y="5" width="150" height="60"><title>Name: Sequenzdiagramm erstellen
ID: 5
Duration: 3
FAZ: 4
FEZ: 7
SAZ: 8
SEZ: 11
GP: 4
FP: 2</title></rect><line x1="423" y1="5" x2="423" y2="65"></line><line x1="473" y1="5" x2="473" y2="65"></line><line x1="373" y1="25" x2="523" y2="25"></line><line x1="373" y1="45" x2="523" y2="45"></line><text x="398" y="15" stroke-width="1">5</text><text x="498" y="15" stroke-width="1">3</text><text x="398" y="35" stroke-width="1">4</text><text x="448" y="35" stroke-width="1">4</text><text x="498" y="35" stroke-width="1">7</text><text x="398" y="55" stroke-width="1">8</text><text x="448" y="55" stroke-width="1">2</text><text x="498" y="55" stroke-width="1">11</text><rect x="5" y="165" width="150" height="60"><title>Name: MkDocs-Tutorial nachvollziehen
ID: 6
Duration: 1
FAZ: 0
FEZ: 1
SAZ: 11
SEZ: 12
GP: 11
FP: 11</title></rect><line x1="55" y1="165" x2="55" y2="225"></line><line x1="105" y1="165" x2="105" y2="225"></line><line x1="5" y1="185" x2="155" y2="185"></line><line x1="5" y1="205" x2="155" y2="205"></line><text x="30" y="175" stroke-width="1">6</text><text x="130" y="175" stroke-width="1">1</text><text x="30" y="195" stroke-width="1">0</text><text x="80" y="195" stroke-width="1">11</text><text x="130" y="195" stroke-width="1">1</text><text x="30" y="215" stroke-width="1">11</text><text x="80" y="215" stroke-width="1">11</text><text x="130" y="215" stroke-width="1">12</text><rect x="189" y="165" width="150" height="60"><title>Name: MkDocs-Projektwiki erstellen
ID: 7
Duration: 2
FAZ: 1
FEZ: 3
SAZ: 10
SEZ: 12
GP: 9
FP: 9</title></rect><line x1="239" y1="165" x2="239" y2="225"></line><line x1="289" y1="165" x2="289" y2="225"></line><line x1="189" y1="185" x2="339" y2="185"></line><line x1="189" y1="205" x2="339" y2="205"></line><text x="214" y="175" stroke-width="1">7</text><text x="314" y="175" stroke-width="1">2</text><text x="214" y="195" stroke-width="1">1</text><text x="264" y="195" stroke-width="1">9</text><text x="314" y="195" stroke-width="1">3</text><text x="214" y="215" stroke-width="1">10</text><text x="264" y="215" stroke-width="1">9</text><text x="314" y="215" stroke-width="1">12</text><rect x="189" y="245" width="150" height="60"><title>Name: Datenquellen analysieren
ID: 8
Duration: 1
FAZ: 1
FEZ: 2
SAZ: 1
SEZ: 2
GP: 0
FP: 0</title></rect><line x1="239" y1="245" x2="239" y2="305"></line><line x1="289" y1="245" x2="289" y2="305"></line><line x1="189" y1="265" x2="339" y2="265"></line><line x1="189" y1="285" x2="339" y2="285"></line><text x="214" y="255" stroke-width="1">8</text><text x="314" y="255" stroke-width="1">1</text><text x="214" y="275" stroke-width="1">1</text><text x="264" y="275" stroke-width="1">0</text><text x="314" y="275" stroke-width="1">2</text><text x="214" y="295" stroke-width="1">1</text><text x="264" y="295" stroke-width="1">0</text><text x="314" y="295" stroke-width="1">2</text><rect x="373" y="85" width="150" height="60"><title>Name: Datenformate recherchieren und festlegen
ID: 9
Duration: 1
FAZ: 2
FEZ: 3
SAZ: 2
SEZ: 3
GP: 0
FP: 0</title></rect><line x1="423" y1="85" x2="423" y2="145"></line><line x1="473" y1="85" x2="473" y2="145"></line><line x1="373" y1="105" x2="523" y2="105"></line><line x1="373" y1="125" x2="523" y2="125"></line><text x="398" y="95" stroke-width="1">9</text><text x="498" y="95" stroke-width="1">1</text><text x="398" y="115" stroke-width="1">2</text><text x="448" y="115" stroke-width="1">0</text><text x="498" y="115" stroke-width="1">3</text><text x="398" y="135" stroke-width="1">2</text><text x="448" y="135" stroke-width="1">0</text><text x="498" y="135" stroke-width="1">3</text><rect x="373" y="165" width="150" height="60"><title>Name: Nutzungsrechte der Datenquellen bewerten
ID: 10
Duration: 2
FAZ: 2
FEZ: 4
SAZ: 4
SEZ: 6
GP: 2
FP: 0</title></rect><line x1="423" y1="165" x2="423" y2="225"></line><line x1="473" y1="165" x2="473" y2="225"></line><line x1="373" y1="185" x2="523" y2="185"></line><line x1="373" y1="205" x2="523" y2="205"></line><text x="398" y="175" stroke-width="1">10</text><text x="498" y="175" stroke-width="1">2</text><text x="398" y="195" stroke-width="1">2</text><text x="448" y="195" stroke-width="1">2</text><text x="498" y="195" stroke-width="1">4</text><text x="398" y="215" stroke-width="1">4</text><text x="448" y="215" stroke-width="1">0</text><text x="498" y="215" stroke-width="1">6</text><rect x="557" y="5" width="150" height="60"><title>Name: Konzept Nutzerverwaltung erstellen
ID: 11
Duration: 2
FAZ: 4
FEZ: 6
SAZ: 6
SEZ: 8
GP: 2
FP: 0</title></rect><line x1="607" y1="5" x2="607" y2="65"></line><line x1="657" y1="5" x2="657" y2="65"></line><line x1="557" y1="25" x2="707" y2="25"></line><line x1="557" y1="45" x2="707" y2="45"></line><text x="582" y="15" stroke-width="1">11</text><text x="682" y="15" stroke-width="1">2</text><text x="582" y="35" stroke-width="1">4</text><text x="632" y="35" stroke-width="1">2</text><text x="682" y="35" stroke-width="1">6</text><text x="582" y="55" stroke-width="1">6</text><text x="632" y="55" stroke-width="1">0</text><text x="682" y="55" stroke-width="1">8</text><rect x="729" y="5" width="150" height="60"><title>Name: Software-Schnittstelle zur Nutzerverwaltung definieren
ID: 12
Duration: 3
FAZ: 6
FEZ: 9
SAZ: 8
SEZ: 11
GP: 2
FP: 0</title></rect><line x1="779" y1="5" x2="779" y2="65"></line><line x1="829" y1="5" x2="829" y2="65"></line><line x1="729" y1="25" x2="879" y2="25"></line><line x1="729" y1="45" x2="879" y2="45"></line><text x="754" y="15" stroke-width="1">12</text><text x="854" y="15" stroke-width="1">3</text><text x="754" y="35" stroke-width="1">6</text><text x="804" y="35" stroke-width="1">2</text><text x="854" y="35" stroke-width="1">9</text><text x="754" y="55" stroke-width="1">8</text><text x="804" y="55" stroke-width="1">0</text><text x="854" y="55" stroke-width="1">11</text><rect x="557" y="85" width="150" height="60"><title>Name: IT-Sicherheitskonzept für System festlegen
ID: 13
Duration: 2
FAZ: 4
FEZ: 6
SAZ: 10
SEZ: 12
GP: 6
FP: 6</title></rect><line x1="607" y1="85" x2="607" y2="145"></line><line x1="657" y1="85" x2="657" y2="145"></line><line x1="557" y1="105" x2="707" y2="105"></line><line x1="557" y1="125" x2="707" y2="125"></line><text x="582" y="95" stroke-width="1">13</text><text x="682" y="95" stroke-width="1">2</text><text x="582" y="115" stroke-width="1">4</text><text x="632" y="115" stroke-width="1">6</text><text x="682" y="115" stroke-width="1">6</text><text x="582" y="135" stroke-width="1">10</text><text x="632" y="135" stroke-width="1">6</text><text x="682" y="135" stroke-width="1">12</text><rect x="557" y="165" width="150" height="60"><title>Name: Datenmodell erstellen
ID: 14
Duration: 3
FAZ: 3
FEZ: 6
SAZ: 3
SEZ: 6
GP: 0
FP: 0</title></rect><line x1="607" y1="165" x2="607" y2="225"></line><line x1="657" y1="165" x2="657" y2="225"></line><line x1="557" y1="185" x2="707" y2="185"></line><line x1="557" y1="205" x2="707" y2="205"></line><text x="582" y="175" stroke-width="1">14</text><text x="682" y="175" stroke-width="1">3</text><text x="582" y="195" stroke-width="1">3</text><text x="632" y="195" stroke-width="1">0</text><text x="682" y="195" stroke-width="1">6</text><text x="582" y="215" stroke-width="1">3</text><text x="632" y="215" stroke-width="1">0</text><text x="682" y="215" stroke-width="1">6</text><rect x="729" y="85" width="150" height="60"><title>Name: Datenmodell inkl. Nutzerverwaltung implementieren
ID: 15
Duration: 6
FAZ: 6
FEZ: 12
SAZ: 6
SEZ: 12
GP: 0
FP: 0</title></rect><line x1="779" y1="85" x2="779" y2="145"></line><line x1="829" y1="85" x2="829" y2="145"></line><line x1="729" y1="105" x2="879" y2="105"></line><line x1="729" y1="125" x2="879" y2="125"></line><text x="754" y="95" stroke-width="1">15</text><text x="854" y="95" stroke-width="1">6</text><text x="754" y="115" stroke-width="1">6</text><text x="804" y="115" stroke-width="1">0</text><text x="854" y="115" stroke-width="1">12</text><text x="754" y="135" stroke-width="1">6</text><text x="804" y="135" stroke-width="1">0</text><text x="854" y="135" stroke-width="1">12</text><rect x="895" y="245" width="150" height="60"><title>Name: Vorgehensmodell für Software-Entwicklung auswählen
ID: 16
Duration: 1
FAZ: 9
FEZ: 10
SAZ: 11
SEZ: 12
GP: 2
FP: 2</title></rect><line x1="945" y1="245" x2="945" y2="305"></line><line x1="995" y1="245" x2="995" y2="305"></line><line x1="895" y1="265" x2="1045" y2="265"></line><line x1="895" y1="285" x2="1045" y2="285"></line><text x="920" y="255" stroke-width="1">16</text><text x="1020" y="255" stroke-width="1">1</text><text x="920" y="275" stroke-width="1">9</text><text x="970" y="275" stroke-width="1">2</text><text x="1020" y="275" stroke-width="1">10</text><text x="920" y="295" stroke-width="1">11</text><text x="970" y="295" stroke-width="1">2</text><text x="1020" y="295" stroke-width="1">12</text><polyline points="155,10 178,10 178,35" stroke="black"></polyline><polyline points="178,35 189,35 184,30" stroke="black"></polyline><line x1="189" y1="35" x2="184" y2="40" stroke="black"></line><polyline points="155,16 172,16 172,115" stroke="black"></polyline><polyline points="172,115 189,115 184,110" stroke="black"></polyline><line x1="189" y1="115" x2="184" y2="120" stroke="black"></line><polyline points="155,22 166,22 166,275" stroke="red"></polyline><polyline points="166,275 189,275 184,270" stroke="red"></polyline><line x1="189" y1="275" x2="184" y2="280" stroke="red"></line><polyline points="155,90 160,90 160,195" stroke="black"></polyline><polyline points="160,195 189,195 184,190" stroke="black"></polyline><line x1="189" y1="195" x2="184" y2="200" stroke="black"></line><polyline points="339,10 362,10 362,275" stroke="black"></polyline><polyline points="339,96 362,96 362,275" stroke="black"></polyline><polyline points="362,275 895,275 890,270" stroke="black"></polyline><line x1="895" y1="275" x2="890" y2="280" stroke="black"></line><polyline points="339,90 356,90 356,35" stroke="black"></polyline><polyline points="356,35 373,35 368,30" stroke="black"></polyline><line x1="373" y1="35" x2="368" y2="40" stroke="black"></line><polyline points="339,250 350,250 350,115" stroke="red"></polyline><polyline points="350,115 373,115 368,110" stroke="red"></polyline><line x1="373" y1="115" x2="368" y2="120" stroke="red"></line><polyline points="339,256 344,256 344,195" stroke="black"></polyline><polyline points="344,195 373,195 368,190" stroke="black"></polyline><line x1="373" y1="195" x2="368" y2="200" stroke="black"></line><polyline points="523,10 546,10 546,275" stroke="black"></polyline><polyline points="546,275 895,275 890,270" stroke="black"></polyline><line x1="895" y1="275" x2="890" y2="280" stroke="black"></line><polyline points="523,90 540,90 540,195" stroke="red"></polyline><polyline points="540,195 557,195 552,190" stroke="red"></polyline><line x1="557" y1="195" x2="552" y2="200" stroke="red"></line><polyline points="523,170 534,170 534,35" stroke="black"></polyline><polyline points="534,35 557,35 552,30" stroke="black"></polyline><line x1="557" y1="35" x2="552" y2="40" stroke="black"></line><polyline points="523,176 528,176 528,115" stroke="black"></polyline><polyline points="528,115 557,115 552,110" stroke="black"></polyline><line x1="557" y1="115" x2="552" y2="120" stroke="black"></line><polyline points="707,10 718,10 718,35" stroke="black"></polyline><polyline points="718,35 729,35 724,30" stroke="black"></polyline><line x1="729" y1="35" x2="724" y2="40" stroke="black"></line><polyline points="707,170 712,170 712,115" stroke="red"></polyline><polyline points="712,115 729,115 724,110" stroke="red"></polyline><line x1="729" y1="115" x2="724" y2="120" stroke="red"></line><polyline points="879,10 884,10 884,275" stroke="black"></polyline><polyline points="884,275 895,275 890,270" stroke="black"></polyline><line x1="895" y1="275" x2="890" y2="280" stroke="black"></line><desc id="netzplan-content">%5B%7B%22id%22%3A%221%22%2C%22name%22%3A%22Gesch%C3%A4ftsprozess%20analysieren%22%2C%22duration%22%3A1%2C%22dependencies%22%3A%22%22%7D%2C%7B%22id%22%3A%222%22%2C%22name%22%3A%22Zielplattformen%20ausw%C3%A4hlen%22%2C%22duration%22%3A1%2C%22dependencies%22%3A%221%22%7D%2C%7B%22id%22%3A%223%22%2C%22name%22%3A%22Anwendungsfalldiagramm%20erstellen%22%2C%22duration%22%3A3%2C%22dependencies%22%3A%221%22%7D%2C%7B%22id%22%3A%224%22%2C%22name%22%3A%22Git-Repository%20erstellen%22%2C%22duration%22%3A1%2C%22dependencies%22%3A%22%22%7D%2C%7B%22id%22%3A%225%22%2C%22name%22%3A%22Sequenzdiagramm%20erstellen%22%2C%22duration%22%3A3%2C%22dependencies%22%3A%223%22%7D%2C%7B%22id%22%3A%226%22%2C%22name%22%3A%22MkDocs-Tutorial%20nachvollziehen%22%2C%22duration%22%3A1%2C%22dependencies%22%3A%22%22%7D%2C%7B%22id%22%3A%227%22%2C%22name%22%3A%22MkDocs-Projektwiki%20erstellen%22%2C%22duration%22%3A2%2C%22dependencies%22%3A%224%22%7D%2C%7B%22id%22%3A%228%22%2C%22name%22%3A%22Datenquellen%20analysieren%22%2C%22duration%22%3A1%2C%22dependencies%22%3A%221%22%7D%2C%7B%22id%22%3A%229%22%2C%22name%22%3A%22Datenformate%20recherchieren%20und%20festlegen%22%2C%22duration%22%3A1%2C%22dependencies%22%3A%228%22%7D%2C%7B%22id%22%3A%2210%22%2C%22name%22%3A%22Nutzungsrechte%20der%20Datenquellen%20bewerten%22%2C%22duration%22%3A2%2C%22dependencies%22%3A%228%22%7D%2C%7B%22id%22%3A%2211%22%2C%22name%22%3A%22Konzept%20Nutzerverwaltung%20erstellen%22%2C%22duration%22%3A2%2C%22dependencies%22%3A%2210%22%7D%2C%7B%22id%22%3A%2212%22%2C%22name%22%3A%22Software-Schnittstelle%20zur%20Nutzerverwaltung%20definieren%22%2C%22duration%22%3A3%2C%22dependencies%22%3A%2211%22%7D%2C%7B%22id%22%3A%2213%22%2C%22name%22%3A%22IT-Sicherheitskonzept%20f%C3%BCr%20System%20festlegen%22%2C%22duration%22%3A2%2C%22dependencies%22%3A%2210%22%7D%2C%7B%22id%22%3A%2214%22%2C%22name%22%3A%22Datenmodell%20erstellen%22%2C%22duration%22%3A3%2C%22dependencies%22%3A%229%22%7D%2C%7B%22id%22%3A%2215%22%2C%22name%22%3A%22Datenmodell%20inkl.%20Nutzerverwaltung%20implementieren%22%2C%22duration%22%3A6%2C%22dependencies%22%3A%2214%22%7D%2C%7B%22id%22%3A%2216%22%2C%22name%22%3A%22Vorgehensmodell%20f%C3%BCr%20Software-Entwicklung%20ausw%C3%A4hlen%22%2C%22duration%22%3A1%2C%22dependencies%22%3A%222%2C3%2C5%2C12%22%7D%5D</desc></svg>